<svg xmlns="http://www.w3.org/2000/svg" version="1.1" xmlns:xlink="http://www.w3.org/1999/xlink" viewBox="0 0 200 200"><rect width="200" height="200" fill="url('#gradient')"></rect><defs><linearGradient id="gradient" gradientTransform="rotate(148 0.5 0.5)"><stop offset="0%" stop-color="#e7ebff"></stop><stop offset="100%" stop-color="#ffffff"></stop></linearGradient></defs><g><g fill="#00a3ff" transform="matrix(2.4553822354002834,0,0,2.4553822354002834,7.074379615511212,114.50223344844903)" stroke="#0075ff" stroke-width="0.75"><path d="M9.98 0L9.15-2.66L4.45-2.66L3.63 0L-0.03 0L5.19-14.22L8.41-14.22L13.66 0L9.98 0ZM6.80-10.23L5.27-5.30L8.33-5.30L6.80-10.23ZM26.55-7.47L26.55-6.82Q26.55-4.84 25.90-3.37Q25.24-1.90 24.09-1.02L24.09-1.02L26.39 0.80L24.27 2.60L21.21 0.14Q20.78 0.20 20.35 0.20L20.35 0.20Q18.54 0.20 17.13-0.64Q15.72-1.48 14.94-3.05Q14.15-4.61 14.12-6.64L14.12-6.64L14.12-7.39Q14.12-9.49 14.89-11.08Q15.65-12.68 17.08-13.54Q18.50-14.41 20.33-14.41L20.33-14.41Q22.14-14.41 23.55-13.55Q24.97-12.70 25.76-11.11Q26.54-9.52 26.55-7.47L26.55-7.47ZM23.07-6.76L23.07-7.41Q23.07-9.53 22.36-10.63Q21.65-11.73 20.33-11.73L20.33-11.73Q18.97-11.73 18.29-10.64Q17.61-9.56 17.60-7.47L17.60-7.47L17.60-6.82Q17.60-4.72 18.29-3.60Q18.98-2.48 20.35-2.48L20.35-2.48Q21.66-2.48 22.36-3.58Q23.06-4.69 23.07-6.76L23.07-6.76ZM34.07 0L28.30 0L28.30-14.22L33.41-14.22Q36.15-14.22 37.58-13.21Q39.01-12.21 39.01-10.29L39.01-10.29Q39.01-9.19 38.51-8.41Q38.00-7.63 37.01-7.26L37.01-7.26Q38.13-6.96 38.72-6.16Q39.32-5.36 39.32-4.21L39.32-4.21Q39.32-2.12 37.99-1.07Q36.67-0.02 34.07 0L34.07 0ZM34.13-6.04L31.73-6.04L31.73-2.64L33.97-2.64Q34.90-2.64 35.40-3.06Q35.90-3.49 35.90-4.26L35.90-4.26Q35.90-6.04 34.13-6.04L34.13-6.04ZM31.73-11.57L31.73-8.29L33.52-8.29Q34.64-8.30 35.12-8.70Q35.60-9.10 35.60-9.88L35.60-9.88Q35.60-10.78 35.08-11.18Q34.56-11.57 33.41-11.57L33.41-11.57L31.73-11.57ZM44.63-14.22L44.63-2.64L50.60-2.64L50.60 0L41.20 0L41.20-14.22L44.63-14.22ZM59.38-3.78L59.38-3.78Q59.38-4.53 58.84-4.95Q58.31-5.37 56.97-5.82Q55.63-6.27 54.79-6.69L54.79-6.69Q52.02-8.05 52.02-10.42L52.02-10.42Q52.02-11.60 52.71-12.50Q53.40-13.41 54.66-13.91Q55.92-14.41 57.49-14.41L57.49-14.41Q59.02-14.41 60.24-13.87Q61.46-13.32 62.13-12.31Q62.80-11.30 62.80-10L62.80-10L59.38-10Q59.38-10.87 58.85-11.35Q58.32-11.83 57.41-11.83L57.41-11.83Q56.49-11.83 55.96-11.42Q55.43-11.02 55.43-10.39L55.43-10.39Q55.43-9.84 56.02-9.40Q56.60-8.96 58.08-8.48Q59.55-8.01 60.50-7.46L60.50-7.46Q62.80-6.13 62.80-3.80L62.80-3.80Q62.80-1.93 61.40-0.87Q59.99 0.20 57.54 0.20L57.54 0.20Q55.81 0.20 54.41-0.42Q53.01-1.04 52.30-2.12Q51.59-3.20 51.59-4.61L51.59-4.61L55.03-4.61Q55.03-3.47 55.62-2.92Q56.21-2.38 57.54-2.38L57.54-2.38Q58.39-2.38 58.88-2.75Q59.38-3.12 59.38-3.78ZM75.72-14.22L75.72-11.57L71.46-11.57L71.46 0L68.03 0L68.03-11.57L63.84-11.57L63.84-14.22L75.72-14.22Z"></path></g></g></svg>